<?xml version="1.0" standalone="no"?>
<!DOCTYPE svg PUBLIC "-//W3C//DTD SVG 20010904//EN"
 "http://www.w3.org/TR/2001/REC-SVG-20010904/DTD/svg10.dtd">
<svg version="1.0" xmlns="http://www.w3.org/2000/svg"
 width="1280.000000pt" height="1280.000000pt" viewBox="0 0 1280.000000 1280.000000"
 preserveAspectRatio="xMidYMid meet">
<metadata>
Created by potrace 1.15, written by Peter Selinger 2001-2017
</metadata>
<g transform="translate(0.000000,1280.000000) scale(0.100000,-0.100000)"
fill="currentColor" stroke="none">
<path d="M550 12465 c-105 -35 -200 -141 -222 -248 -43 -206 163 -412 369
-369 155 32 275 190 260 339 -11 105 -90 213 -190 262 -61 29 -155 36 -217 16z"/>
<path d="M1830 12465 c-151 -50 -253 -216 -222 -362 25 -119 136 -230 254
-255 194 -41 395 142 375 339 -11 105 -90 213 -190 262 -61 29 -155 36 -217
16z"/>
<path d="M3110 12465 c-105 -35 -200 -141 -222 -248 -43 -206 163 -412 369
-369 155 32 275 190 260 339 -11 105 -90 213 -190 262 -61 29 -155 36 -217 16z"/>
<path d="M4390 12465 c-105 -35 -200 -141 -222 -248 -43 -206 163 -412 369
-369 155 32 275 190 260 339 -11 105 -90 213 -190 262 -61 29 -155 36 -217 16z"/>
<path d="M5670 12465 c-105 -35 -200 -141 -222 -248 -43 -206 163 -412 369
-369 155 32 275 190 260 339 -11 105 -90 213 -190 262 -61 29 -155 36 -217 16z"/>
<path d="M6950 12465 c-105 -35 -200 -141 -222 -248 -43 -206 163 -412 369
-369 155 32 275 190 260 339 -11 105 -90 213 -190 262 -61 29 -155 36 -217 16z"/>
<path d="M8230 12465 c-105 -35 -200 -141 -222 -248 -43 -206 163 -412 369
-369 155 32 275 190 260 339 -11 105 -90 213 -190 262 -61 29 -155 36 -217 16z"/>
<path d="M9510 12465 c-105 -35 -200 -141 -222 -248 -43 -206 163 -412 369
-369 155 32 275 190 260 339 -11 105 -90 213 -190 262 -61 29 -155 36 -217 16z"/>
<path d="M10790 12465 c-105 -35 -200 -141 -222 -248 -25 -117 32 -244 142
-319 107 -74 229 -75 337 -3 177 118 201 338 53 485 -85 86 -207 119 -310 85z"/>
<path d="M12070 12465 c-105 -35 -200 -141 -222 -248 -25 -117 32 -244 142
-319 107 -74 229 -75 337 -3 177 118 201 338 53 485 -85 86 -207 119 -310 85z"/>
<path d="M550 11185 c-105 -35 -200 -141 -222 -248 -43 -206 163 -412 369
-369 155 32 275 190 260 339 -11 105 -90 213 -190 262 -61 29 -155 36 -217 16z"/>
<path d="M1830 11185 c-151 -50 -253 -216 -222 -362 25 -119 136 -230 254
-255 194 -41 395 142 375 339 -11 105 -90 213 -190 262 -61 29 -155 36 -217
16z"/>
<path d="M3110 11185 c-105 -35 -200 -141 -222 -248 -43 -206 163 -412 369
-369 155 32 275 190 260 339 -11 105 -90 213 -190 262 -61 29 -155 36 -217 16z"/>
<path d="M4390 11185 c-105 -35 -200 -141 -222 -248 -43 -206 163 -412 369
-369 155 32 275 190 260 339 -11 105 -90 213 -190 262 -61 29 -155 36 -217 16z"/>
<path d="M5670 11185 c-105 -35 -200 -141 -222 -248 -43 -206 163 -412 369
-369 155 32 275 190 260 339 -11 105 -90 213 -190 262 -61 29 -155 36 -217 16z"/>
<path d="M6950 11185 c-105 -35 -200 -141 -222 -248 -43 -206 163 -412 369
-369 155 32 275 190 260 339 -11 105 -90 213 -190 262 -61 29 -155 36 -217 16z"/>
<path d="M8230 11185 c-105 -35 -200 -141 -222 -248 -43 -206 163 -412 369
-369 155 32 275 190 260 339 -11 105 -90 213 -190 262 -61 29 -155 36 -217 16z"/>
<path d="M9510 11185 c-105 -35 -200 -141 -222 -248 -43 -206 163 -412 369
-369 155 32 275 190 260 339 -11 105 -90 213 -190 262 -61 29 -155 36 -217 16z"/>
<path d="M10790 11185 c-105 -35 -200 -141 -222 -248 -25 -117 32 -244 142
-319 107 -74 229 -75 337 -3 177 118 201 338 53 485 -85 86 -207 119 -310 85z"/>
<path d="M12070 11185 c-105 -35 -200 -141 -222 -248 -25 -117 32 -244 142
-319 107 -74 229 -75 337 -3 177 118 201 338 53 485 -85 86 -207 119 -310 85z"/>
<path d="M550 9905 c-105 -35 -200 -141 -222 -248 -43 -206 163 -412 369 -369
155 32 275 190 260 339 -11 105 -90 213 -190 262 -61 29 -155 36 -217 16z"/>
<path d="M1830 9905 c-105 -35 -200 -141 -222 -248 -43 -206 163 -412 369
-369 155 32 275 190 260 339 -11 105 -90 213 -190 262 -61 29 -155 36 -217 16z"/>
<path d="M3110 9905 c-105 -35 -200 -141 -222 -248 -43 -206 163 -412 369
-369 155 32 275 190 260 339 -11 105 -90 213 -190 262 -61 29 -155 36 -217 16z"/>
<path d="M4390 9905 c-105 -35 -200 -141 -222 -248 -43 -206 163 -412 369
-369 155 32 275 190 260 339 -11 105 -90 213 -190 262 -61 29 -155 36 -217 16z"/>
<path d="M5670 9905 c-105 -35 -200 -141 -222 -248 -43 -206 163 -412 369
-369 155 32 275 190 260 339 -11 105 -90 213 -190 262 -61 29 -155 36 -217 16z"/>
<path d="M6950 9905 c-105 -35 -200 -141 -222 -248 -43 -206 163 -412 369
-369 155 32 275 190 260 339 -11 105 -90 213 -190 262 -61 29 -155 36 -217 16z"/>
<path d="M8230 9905 c-105 -35 -200 -141 -222 -248 -43 -206 163 -412 369
-369 155 32 275 190 260 339 -11 105 -90 213 -190 262 -61 29 -155 36 -217 16z"/>
<path d="M9510 9905 c-105 -35 -200 -141 -222 -248 -43 -206 163 -412 369
-369 155 32 275 190 260 339 -11 105 -90 213 -190 262 -61 29 -155 36 -217 16z"/>
<path d="M10790 9905 c-105 -35 -200 -141 -222 -248 -43 -206 163 -412 369
-369 155 32 275 190 260 339 -11 105 -90 213 -190 262 -61 29 -155 36 -217 16z"/>
<path d="M12070 9905 c-105 -35 -200 -141 -222 -248 -43 -206 163 -412 369
-369 155 32 275 190 260 339 -11 105 -90 213 -190 262 -61 29 -155 36 -217 16z"/>
<path d="M550 8625 c-105 -35 -200 -141 -222 -248 -43 -206 163 -412 369 -369
155 32 275 190 260 339 -11 105 -90 213 -190 262 -61 29 -155 36 -217 16z"/>
<path d="M1830 8625 c-105 -35 -200 -141 -222 -248 -43 -206 163 -412 369
-369 155 32 275 190 260 339 -11 105 -90 213 -190 262 -61 29 -155 36 -217 16z"/>
<path d="M3110 8625 c-105 -35 -200 -141 -222 -248 -43 -206 163 -412 369
-369 155 32 275 190 260 339 -11 105 -90 213 -190 262 -61 29 -155 36 -217 16z"/>
<path d="M4390 8625 c-105 -35 -200 -141 -222 -248 -43 -206 163 -412 369
-369 155 32 275 190 260 339 -11 105 -90 213 -190 262 -61 29 -155 36 -217 16z"/>
<path d="M5670 8625 c-105 -35 -200 -141 -222 -248 -43 -206 163 -412 369
-369 155 32 275 190 260 339 -11 105 -90 213 -190 262 -61 29 -155 36 -217 16z"/>
<path d="M6950 8625 c-105 -35 -200 -141 -222 -248 -43 -206 163 -412 369
-369 155 32 275 190 260 339 -11 105 -90 213 -190 262 -61 29 -155 36 -217 16z"/>
<path d="M8230 8625 c-105 -35 -200 -141 -222 -248 -43 -206 163 -412 369
-369 155 32 275 190 260 339 -11 105 -90 213 -190 262 -61 29 -155 36 -217 16z"/>
<path d="M9510 8625 c-105 -35 -200 -141 -222 -248 -43 -206 163 -412 369
-369 155 32 275 190 260 339 -11 105 -90 213 -190 262 -61 29 -155 36 -217 16z"/>
<path d="M10790 8625 c-105 -35 -200 -141 -222 -248 -43 -206 163 -412 369
-369 155 32 275 190 260 339 -11 105 -90 213 -190 262 -61 29 -155 36 -217 16z"/>
<path d="M12070 8625 c-105 -35 -200 -141 -222 -248 -43 -206 163 -412 369
-369 155 32 275 190 260 339 -11 105 -90 213 -190 262 -61 29 -155 36 -217 16z"/>
<path d="M550 7345 c-105 -35 -200 -141 -222 -248 -43 -206 163 -412 369 -369
155 32 275 190 260 339 -11 105 -90 213 -190 262 -61 29 -155 36 -217 16z"/>
<path d="M1830 7345 c-105 -35 -200 -141 -222 -248 -43 -206 163 -412 369
-369 155 32 275 190 260 339 -11 105 -90 213 -190 262 -61 29 -155 36 -217 16z"/>
<path d="M3110 7345 c-105 -35 -200 -141 -222 -248 -43 -206 163 -412 369
-369 155 32 275 190 260 339 -11 105 -90 213 -190 262 -61 29 -155 36 -217 16z"/>
<path d="M4390 7345 c-105 -35 -200 -141 -222 -248 -43 -206 163 -412 369
-369 155 32 275 190 260 339 -11 105 -90 213 -190 262 -61 29 -155 36 -217 16z"/>
<path d="M5670 7345 c-105 -35 -200 -141 -222 -248 -43 -206 163 -412 369
-369 155 32 275 190 260 339 -11 105 -90 213 -190 262 -61 29 -155 36 -217 16z"/>
<path d="M6950 7345 c-105 -35 -200 -141 -222 -248 -43 -206 163 -412 369
-369 155 32 275 190 260 339 -11 105 -90 213 -190 262 -61 29 -155 36 -217 16z"/>
<path d="M8230 7345 c-105 -35 -200 -141 -222 -248 -43 -206 163 -412 369
-369 155 32 275 190 260 339 -11 105 -90 213 -190 262 -61 29 -155 36 -217 16z"/>
<path d="M9510 7345 c-105 -35 -200 -141 -222 -248 -43 -206 163 -412 369
-369 155 32 275 190 260 339 -11 105 -90 213 -190 262 -61 29 -155 36 -217 16z"/>
<path d="M10790 7345 c-105 -35 -200 -141 -222 -248 -43 -206 163 -412 369
-369 155 32 275 190 260 339 -11 105 -90 213 -190 262 -61 29 -155 36 -217 16z"/>
<path d="M12070 7345 c-105 -35 -200 -141 -222 -248 -43 -206 163 -412 369
-369 155 32 275 190 260 339 -11 105 -90 213 -190 262 -61 29 -155 36 -217 16z"/>
<path d="M550 6065 c-105 -35 -200 -141 -222 -248 -43 -206 163 -412 369 -369
155 32 275 190 260 339 -11 105 -90 213 -190 262 -61 29 -155 36 -217 16z"/>
<path d="M1830 6065 c-105 -35 -200 -141 -222 -248 -43 -206 163 -412 369
-369 155 32 275 190 260 339 -11 105 -90 213 -190 262 -61 29 -155 36 -217 16z"/>
<path d="M3110 6065 c-105 -35 -200 -141 -222 -248 -43 -206 163 -412 369
-369 155 32 275 190 260 339 -11 105 -90 213 -190 262 -61 29 -155 36 -217 16z"/>
<path d="M4390 6065 c-105 -35 -200 -141 -222 -248 -43 -206 163 -412 369
-369 155 32 275 190 260 339 -11 105 -90 213 -190 262 -61 29 -155 36 -217 16z"/>
<path d="M5670 6065 c-105 -35 -200 -141 -222 -248 -43 -206 163 -412 369
-369 155 32 275 190 260 339 -11 105 -90 213 -190 262 -61 29 -155 36 -217 16z"/>
<path d="M6950 6065 c-105 -35 -200 -141 -222 -248 -43 -206 163 -412 369
-369 155 32 275 190 260 339 -11 105 -90 213 -190 262 -61 29 -155 36 -217 16z"/>
<path d="M8230 6065 c-105 -35 -200 -141 -222 -248 -43 -206 163 -412 369
-369 155 32 275 190 260 339 -11 105 -90 213 -190 262 -61 29 -155 36 -217 16z"/>
<path d="M9510 6065 c-105 -35 -200 -141 -222 -248 -43 -206 163 -412 369
-369 155 32 275 190 260 339 -11 105 -90 213 -190 262 -61 29 -155 36 -217 16z"/>
<path d="M10790 6065 c-105 -35 -200 -141 -222 -248 -43 -206 163 -412 369
-369 155 32 275 190 260 339 -11 105 -90 213 -190 262 -61 29 -155 36 -217 16z"/>
<path d="M12070 6065 c-105 -35 -200 -141 -222 -248 -43 -206 163 -412 369
-369 155 32 275 190 260 339 -11 105 -90 213 -190 262 -61 29 -155 36 -217 16z"/>
<path d="M550 4785 c-105 -35 -200 -141 -222 -248 -43 -206 163 -412 369 -369
155 32 275 190 260 339 -11 105 -90 213 -190 262 -61 29 -155 36 -217 16z"/>
<path d="M1830 4785 c-105 -35 -200 -141 -222 -248 -43 -206 163 -412 369
-369 155 32 275 190 260 339 -11 105 -90 213 -190 262 -61 29 -155 36 -217 16z"/>
<path d="M3110 4785 c-105 -35 -200 -141 -222 -248 -25 -117 32 -244 142 -319
107 -74 229 -75 337 -3 177 118 201 338 53 485 -85 86 -207 119 -310 85z"/>
<path d="M4390 4785 c-105 -35 -200 -141 -222 -248 -25 -117 32 -244 142 -319
107 -74 229 -75 337 -3 177 118 201 338 53 485 -85 86 -207 119 -310 85z"/>
<path d="M5670 4785 c-151 -50 -253 -216 -222 -362 25 -119 136 -230 255 -255
193 -41 394 142 374 339 -11 105 -90 213 -190 262 -61 29 -155 36 -217 16z"/>
<path d="M6950 4785 c-151 -50 -253 -216 -222 -362 25 -119 136 -230 255 -255
193 -41 394 142 374 339 -11 105 -90 213 -190 262 -61 29 -155 36 -217 16z"/>
<path d="M8230 4785 c-151 -50 -253 -216 -222 -362 25 -119 136 -230 255 -255
193 -41 394 142 374 339 -11 105 -90 213 -190 262 -61 29 -155 36 -217 16z"/>
<path d="M9510 4785 c-151 -50 -253 -216 -222 -362 25 -119 136 -230 255 -255
193 -41 394 142 374 339 -11 105 -90 213 -190 262 -61 29 -155 36 -217 16z"/>
<path d="M10790 4785 c-105 -35 -200 -141 -222 -248 -43 -206 163 -412 369
-369 155 32 275 190 260 339 -11 105 -90 213 -190 262 -61 29 -155 36 -217 16z"/>
<path d="M12070 4785 c-105 -35 -200 -141 -222 -248 -43 -206 163 -412 369
-369 155 32 275 190 260 339 -11 105 -90 213 -190 262 -61 29 -155 36 -217 16z"/>
<path d="M550 3505 c-105 -35 -200 -141 -222 -248 -43 -206 163 -412 369 -369
155 32 275 190 260 339 -11 105 -90 213 -190 262 -61 29 -155 36 -217 16z"/>
<path d="M1830 3505 c-105 -35 -200 -141 -222 -248 -43 -206 163 -412 369
-369 155 32 275 190 260 339 -11 105 -90 213 -190 262 -61 29 -155 36 -217 16z"/>
<path d="M3110 3505 c-105 -35 -200 -141 -222 -248 -25 -117 32 -244 142 -319
107 -74 229 -75 337 -3 177 118 201 338 53 485 -85 86 -207 119 -310 85z"/>
<path d="M4390 3505 c-105 -35 -200 -141 -222 -248 -25 -117 32 -244 142 -319
107 -74 229 -75 337 -3 177 118 201 338 53 485 -85 86 -207 119 -310 85z"/>
<path d="M5670 3505 c-151 -50 -253 -216 -222 -362 25 -119 136 -230 255 -255
193 -41 394 142 374 339 -11 105 -90 213 -190 262 -61 29 -155 36 -217 16z"/>
<path d="M6950 3505 c-151 -50 -253 -216 -222 -362 25 -119 136 -230 255 -255
193 -41 394 142 374 339 -11 105 -90 213 -190 262 -61 29 -155 36 -217 16z"/>
<path d="M8230 3505 c-151 -50 -253 -216 -222 -362 25 -119 136 -230 255 -255
193 -41 394 142 374 339 -11 105 -90 213 -190 262 -61 29 -155 36 -217 16z"/>
<path d="M9510 3505 c-151 -50 -253 -216 -222 -362 25 -119 136 -230 255 -255
193 -41 394 142 374 339 -11 105 -90 213 -190 262 -61 29 -155 36 -217 16z"/>
<path d="M10790 3505 c-105 -35 -200 -141 -222 -248 -43 -206 163 -412 369
-369 155 32 275 190 260 339 -11 105 -90 213 -190 262 -61 29 -155 36 -217 16z"/>
<path d="M12070 3505 c-105 -35 -200 -141 -222 -248 -43 -206 163 -412 369
-369 155 32 275 190 260 339 -11 105 -90 213 -190 262 -61 29 -155 36 -217 16z"/>
<path d="M550 2225 c-105 -35 -200 -141 -222 -248 -43 -206 163 -412 369 -369
155 32 275 190 260 339 -11 105 -90 213 -190 262 -61 29 -155 36 -217 16z"/>
<path d="M1830 2225 c-105 -35 -200 -141 -222 -248 -43 -206 163 -412 369
-369 155 32 275 190 260 339 -11 105 -90 213 -190 262 -61 29 -155 36 -217 16z"/>
<path d="M3110 2225 c-105 -35 -200 -141 -222 -248 -25 -117 32 -244 142 -319
107 -74 229 -75 337 -3 177 118 201 338 53 485 -85 86 -207 119 -310 85z"/>
<path d="M4390 2225 c-105 -35 -200 -141 -222 -248 -25 -117 32 -244 142 -319
107 -74 229 -75 337 -3 177 118 201 338 53 485 -85 86 -207 119 -310 85z"/>
<path d="M5670 2225 c-105 -35 -200 -141 -222 -248 -43 -206 163 -412 369
-369 155 32 275 190 260 339 -11 105 -90 213 -190 262 -61 29 -155 36 -217 16z"/>
<path d="M6950 2225 c-105 -35 -200 -141 -222 -248 -43 -206 163 -412 369
-369 155 32 275 190 260 339 -11 105 -90 213 -190 262 -61 29 -155 36 -217 16z"/>
<path d="M8230 2225 c-105 -35 -200 -141 -222 -248 -43 -206 163 -412 369
-369 155 32 275 190 260 339 -11 105 -90 213 -190 262 -61 29 -155 36 -217 16z"/>
<path d="M9510 2225 c-105 -35 -200 -141 -222 -248 -43 -206 163 -412 369
-369 155 32 275 190 260 339 -11 105 -90 213 -190 262 -61 29 -155 36 -217 16z"/>
<path d="M10790 2225 c-105 -35 -200 -141 -222 -248 -43 -206 163 -412 369
-369 155 32 275 190 260 339 -11 105 -90 213 -190 262 -61 29 -155 36 -217 16z"/>
<path d="M12070 2225 c-105 -35 -200 -141 -222 -248 -43 -206 163 -412 369
-369 155 32 275 190 260 339 -11 105 -90 213 -190 262 -61 29 -155 36 -217 16z"/>
<path d="M550 945 c-105 -35 -200 -141 -222 -248 -43 -206 163 -412 369 -369
155 32 275 190 260 339 -11 105 -90 213 -190 262 -61 29 -155 36 -217 16z"/>
<path d="M1830 945 c-105 -35 -200 -141 -222 -248 -43 -206 163 -412 369 -369
155 32 275 190 260 339 -11 105 -90 213 -190 262 -61 29 -155 36 -217 16z"/>
<path d="M3110 945 c-105 -35 -200 -141 -222 -248 -43 -206 163 -412 369 -369
155 32 275 190 260 339 -11 105 -90 213 -190 262 -61 29 -155 36 -217 16z"/>
<path d="M4390 945 c-105 -35 -200 -141 -222 -248 -43 -206 163 -412 369 -369
155 32 275 190 260 339 -11 105 -90 213 -190 262 -61 29 -155 36 -217 16z"/>
<path d="M5670 945 c-105 -35 -200 -141 -222 -248 -43 -206 163 -412 369 -369
155 32 275 190 260 339 -11 105 -90 213 -190 262 -61 29 -155 36 -217 16z"/>
<path d="M6950 945 c-105 -35 -200 -141 -222 -248 -43 -206 163 -412 369 -369
155 32 275 190 260 339 -11 105 -90 213 -190 262 -61 29 -155 36 -217 16z"/>
<path d="M8230 945 c-105 -35 -200 -141 -222 -248 -43 -206 163 -412 369 -369
155 32 275 190 260 339 -11 105 -90 213 -190 262 -61 29 -155 36 -217 16z"/>
<path d="M9510 945 c-105 -35 -200 -141 -222 -248 -43 -206 163 -412 369 -369
155 32 275 190 260 339 -11 105 -90 213 -190 262 -61 29 -155 36 -217 16z"/>
<path d="M10790 945 c-105 -35 -200 -141 -222 -248 -43 -206 163 -412 369
-369 155 32 275 190 260 339 -11 105 -90 213 -190 262 -61 29 -155 36 -217 16z"/>
<path d="M12070 945 c-105 -35 -200 -141 -222 -248 -43 -206 163 -412 369
-369 155 32 275 190 260 339 -11 105 -90 213 -190 262 -61 29 -155 36 -217 16z"/>
</g>
</svg>
