<svg width="400" height="166" xmlns="http://www.w3.org/2000/svg">
  <g fill="none" fill-rule="evenodd">
    <g opacity=".515">
      <path
        d="M1.848 165.696a1.848 1.848 0 1 1 0-3.696 1.848 1.848 0 0 1 0 3.696zm370 0a1.848 1.848 0 1 1 0-3.696 1.848 1.848 0 0 1 0 3.696zM20.326 162a1.848 1.848 0 1 1 0 3.696 1.848 1.848 0 0 1 0-3.696zm370 0a1.848 1.848 0 1 1 0 3.696 1.848 1.848 0 0 1 0-3.696zm-351.522 0a1.848 1.848 0 1 1 0 3.696 1.848 1.848 0 0 1 0-3.696zm370 0a1.848 1.848 0 1 1 0 3.696 1.848 1.848 0 0 1 0-3.696zm-351.521 0a1.848 1.848 0 1 1 0 3.696 1.848 1.848 0 0 1 0-3.696zm370 0a1.848 1.848 0 1 1 0 3.696 1.848 1.848 0 0 1 0-3.696zM75.76 162a1.848 1.848 0 1 1 0 3.696 1.848 1.848 0 0 1 0-3.696zm370 0a1.848 1.848 0 1 1 0 3.696 1.848 1.848 0 0 1 0-3.696zm-351.52 0a1.848 1.848 0 1 1 0 3.696 1.848 1.848 0 0 1 0-3.696zm370 0a1.848 1.848 0 1 1 0 3.696 1.848 1.848 0 0 1 0-3.696zm-351.522 0a1.848 1.848 0 1 1 0 3.696 1.848 1.848 0 0 1 0-3.696zm370 0a1.848 1.848 0 1 1 0 3.696 1.848 1.848 0 0 1 0-3.696zm-351.521 0a1.848 1.848 0 1 1 0 3.696 1.848 1.848 0 0 1 0-3.696zm370 0a1.848 1.848 0 1 1 0 3.696 1.848 1.848 0 0 1 0-3.696zm-351.522 0a1.848 1.848 0 1 1 0 3.696 1.848 1.848 0 0 1 0-3.696zm370 0a1.848 1.848 0 1 1 0 3.696 1.848 1.848 0 0 1 0-3.696zm-351.522 0a1.848 1.848 0 1 1 0 3.696 1.848 1.848 0 0 1 0-3.696zm370 0a1.848 1.848 0 1 1 0 3.696 1.848 1.848 0 0 1 0-3.696zm-351.305 3.696a1.848 1.848 0 1 1 0-3.696 1.848 1.848 0 0 1 0 3.696zm370 0a1.848 1.848 0 1 1 0-3.696 1.848 1.848 0 0 1 0 3.696zM205.326 162a1.848 1.848 0 1 1 0 3.696 1.848 1.848 0 0 1 0-3.696zm370 0a1.848 1.848 0 1 1 0 3.696 1.848 1.848 0 0 1 0-3.696zm-351.522 0a1.848 1.848 0 1 1 0 3.696 1.848 1.848 0 0 1 0-3.696zm370 0a1.848 1.848 0 1 1 0 3.696 1.848 1.848 0 0 1 0-3.696zm-351.521 0a1.848 1.848 0 1 1 0 3.696 1.848 1.848 0 0 1 0-3.696zm370 0a1.848 1.848 0 1 1 0 3.696 1.848 1.848 0 0 1 0-3.696zm-351.523 0a1.848 1.848 0 1 1 0 3.696 1.848 1.848 0 0 1 0-3.696zm370 0a1.848 1.848 0 1 1 0 3.696 1.848 1.848 0 0 1 0-3.696zm-351.52 0a1.848 1.848 0 1 1 0 3.696 1.848 1.848 0 0 1 0-3.696zm370 0a1.848 1.848 0 1 1 0 3.696 1.848 1.848 0 0 1 0-3.696zm-351.522 0a1.848 1.848 0 1 1 0 3.696 1.848 1.848 0 0 1 0-3.696zm370 0a1.848 1.848 0 1 1 0 3.696 1.848 1.848 0 0 1 0-3.696zm-351.521 0a1.848 1.848 0 1 1 0 3.696 1.848 1.848 0 0 1 0-3.696zm370 0a1.848 1.848 0 1 1 0 3.696 1.848 1.848 0 0 1 0-3.696zm-351.522 0a1.848 1.848 0 1 1 0 3.696 1.848 1.848 0 0 1 0-3.696zm370 0a1.848 1.848 0 1 1 0 3.696 1.848 1.848 0 0 1 0-3.696zm-351.522 0a1.848 1.848 0 1 1 0 3.696 1.848 1.848 0 0 1 0-3.696zm370 0a1.848 1.848 0 1 1 0 3.696 1.848 1.848 0 0 1 0-3.696z"
        opacity=".503"
        fill="currentColor"
      />
    </g>
    <g opacity=".9">
      <g opacity=".515" fill="currentColor">
        <path
          d="M1.848 147.696a1.848 1.848 0 1 1 0-3.696 1.848 1.848 0 0 1 0 3.696zm370 0a1.848 1.848 0 1 1 0-3.696 1.848 1.848 0 0 1 0 3.696zM20.326 144a1.848 1.848 0 1 1 0 3.696 1.848 1.848 0 0 1 0-3.696zm370 0a1.848 1.848 0 1 1 0 3.696 1.848 1.848 0 0 1 0-3.696zm-351.522 0a1.848 1.848 0 1 1 0 3.696 1.848 1.848 0 0 1 0-3.696zm370 0a1.848 1.848 0 1 1 0 3.696 1.848 1.848 0 0 1 0-3.696zm-351.521 0a1.848 1.848 0 1 1 0 3.696 1.848 1.848 0 0 1 0-3.696zm370 0a1.848 1.848 0 1 1 0 3.696 1.848 1.848 0 0 1 0-3.696zM75.76 144a1.848 1.848 0 1 1 0 3.696 1.848 1.848 0 0 1 0-3.696zm370 0a1.848 1.848 0 1 1 0 3.696 1.848 1.848 0 0 1 0-3.696zm-351.52 0a1.848 1.848 0 1 1 0 3.696 1.848 1.848 0 0 1 0-3.696zm370 0a1.848 1.848 0 1 1 0 3.696 1.848 1.848 0 0 1 0-3.696zm-351.522 0a1.848 1.848 0 1 1 0 3.696 1.848 1.848 0 0 1 0-3.696zm370 0a1.848 1.848 0 1 1 0 3.696 1.848 1.848 0 0 1 0-3.696zm-351.521 0a1.848 1.848 0 1 1 0 3.696 1.848 1.848 0 0 1 0-3.696zm370 0a1.848 1.848 0 1 1 0 3.696 1.848 1.848 0 0 1 0-3.696zm-351.522 0a1.848 1.848 0 1 1 0 3.696 1.848 1.848 0 0 1 0-3.696zm370 0a1.848 1.848 0 1 1 0 3.696 1.848 1.848 0 0 1 0-3.696zm-351.522 0a1.848 1.848 0 1 1 0 3.696 1.848 1.848 0 0 1 0-3.696zm370 0a1.848 1.848 0 1 1 0 3.696 1.848 1.848 0 0 1 0-3.696zm-351.305 3.696a1.848 1.848 0 1 1 0-3.696 1.848 1.848 0 0 1 0 3.696zm370 0a1.848 1.848 0 1 1 0-3.696 1.848 1.848 0 0 1 0 3.696zM205.326 144a1.848 1.848 0 1 1 0 3.696 1.848 1.848 0 0 1 0-3.696zm370 0a1.848 1.848 0 1 1 0 3.696 1.848 1.848 0 0 1 0-3.696zm-351.522 0a1.848 1.848 0 1 1 0 3.696 1.848 1.848 0 0 1 0-3.696zm370 0a1.848 1.848 0 1 1 0 3.696 1.848 1.848 0 0 1 0-3.696zm-351.521 0a1.848 1.848 0 1 1 0 3.696 1.848 1.848 0 0 1 0-3.696zm370 0a1.848 1.848 0 1 1 0 3.696 1.848 1.848 0 0 1 0-3.696zm-351.523 0a1.848 1.848 0 1 1 0 3.696 1.848 1.848 0 0 1 0-3.696zm370 0a1.848 1.848 0 1 1 0 3.696 1.848 1.848 0 0 1 0-3.696zm-351.52 0a1.848 1.848 0 1 1 0 3.696 1.848 1.848 0 0 1 0-3.696zm370 0a1.848 1.848 0 1 1 0 3.696 1.848 1.848 0 0 1 0-3.696zm-351.522 0a1.848 1.848 0 1 1 0 3.696 1.848 1.848 0 0 1 0-3.696zm370 0a1.848 1.848 0 1 1 0 3.696 1.848 1.848 0 0 1 0-3.696zm-351.521 0a1.848 1.848 0 1 1 0 3.696 1.848 1.848 0 0 1 0-3.696zm370 0a1.848 1.848 0 1 1 0 3.696 1.848 1.848 0 0 1 0-3.696zm-351.522 0a1.848 1.848 0 1 1 0 3.696 1.848 1.848 0 0 1 0-3.696zm370 0a1.848 1.848 0 1 1 0 3.696 1.848 1.848 0 0 1 0-3.696zm-351.522 0a1.848 1.848 0 1 1 0 3.696 1.848 1.848 0 0 1 0-3.696zm370 0a1.848 1.848 0 1 1 0 3.696 1.848 1.848 0 0 1 0-3.696z"
          opacity=".503"
        />
      </g>
    </g>
    <g opacity=".8">
      <g opacity=".515" fill="currentColor">
        <path
          d="M1.848 129.696a1.848 1.848 0 1 1 0-3.696 1.848 1.848 0 0 1 0 3.696zm370 0a1.848 1.848 0 1 1 0-3.696 1.848 1.848 0 0 1 0 3.696zM20.326 126a1.848 1.848 0 1 1 0 3.696 1.848 1.848 0 0 1 0-3.696zm370 0a1.848 1.848 0 1 1 0 3.696 1.848 1.848 0 0 1 0-3.696zm-351.522 0a1.848 1.848 0 1 1 0 3.696 1.848 1.848 0 0 1 0-3.696zm370 0a1.848 1.848 0 1 1 0 3.696 1.848 1.848 0 0 1 0-3.696zm-351.521 0a1.848 1.848 0 1 1 0 3.696 1.848 1.848 0 0 1 0-3.696zm370 0a1.848 1.848 0 1 1 0 3.696 1.848 1.848 0 0 1 0-3.696zM75.76 126a1.848 1.848 0 1 1 0 3.696 1.848 1.848 0 0 1 0-3.696zm370 0a1.848 1.848 0 1 1 0 3.696 1.848 1.848 0 0 1 0-3.696zm-351.52 0a1.848 1.848 0 1 1 0 3.696 1.848 1.848 0 0 1 0-3.696zm370 0a1.848 1.848 0 1 1 0 3.696 1.848 1.848 0 0 1 0-3.696zm-351.522 0a1.848 1.848 0 1 1 0 3.696 1.848 1.848 0 0 1 0-3.696zm370 0a1.848 1.848 0 1 1 0 3.696 1.848 1.848 0 0 1 0-3.696zm-351.521 0a1.848 1.848 0 1 1 0 3.696 1.848 1.848 0 0 1 0-3.696zm370 0a1.848 1.848 0 1 1 0 3.696 1.848 1.848 0 0 1 0-3.696zm-351.522 0a1.848 1.848 0 1 1 0 3.696 1.848 1.848 0 0 1 0-3.696zm370 0a1.848 1.848 0 1 1 0 3.696 1.848 1.848 0 0 1 0-3.696zm-351.522 0a1.848 1.848 0 1 1 0 3.696 1.848 1.848 0 0 1 0-3.696zm370 0a1.848 1.848 0 1 1 0 3.696 1.848 1.848 0 0 1 0-3.696zm-351.305 3.696a1.848 1.848 0 1 1 0-3.696 1.848 1.848 0 0 1 0 3.696zm370 0a1.848 1.848 0 1 1 0-3.696 1.848 1.848 0 0 1 0 3.696zM205.326 126a1.848 1.848 0 1 1 0 3.696 1.848 1.848 0 0 1 0-3.696zm370 0a1.848 1.848 0 1 1 0 3.696 1.848 1.848 0 0 1 0-3.696zm-351.522 0a1.848 1.848 0 1 1 0 3.696 1.848 1.848 0 0 1 0-3.696zm370 0a1.848 1.848 0 1 1 0 3.696 1.848 1.848 0 0 1 0-3.696zm-351.521 0a1.848 1.848 0 1 1 0 3.696 1.848 1.848 0 0 1 0-3.696zm370 0a1.848 1.848 0 1 1 0 3.696 1.848 1.848 0 0 1 0-3.696zm-351.523 0a1.848 1.848 0 1 1 0 3.696 1.848 1.848 0 0 1 0-3.696zm370 0a1.848 1.848 0 1 1 0 3.696 1.848 1.848 0 0 1 0-3.696zm-351.52 0a1.848 1.848 0 1 1 0 3.696 1.848 1.848 0 0 1 0-3.696zm370 0a1.848 1.848 0 1 1 0 3.696 1.848 1.848 0 0 1 0-3.696zm-351.522 0a1.848 1.848 0 1 1 0 3.696 1.848 1.848 0 0 1 0-3.696zm370 0a1.848 1.848 0 1 1 0 3.696 1.848 1.848 0 0 1 0-3.696zm-351.521 0a1.848 1.848 0 1 1 0 3.696 1.848 1.848 0 0 1 0-3.696zm370 0a1.848 1.848 0 1 1 0 3.696 1.848 1.848 0 0 1 0-3.696zm-351.522 0a1.848 1.848 0 1 1 0 3.696 1.848 1.848 0 0 1 0-3.696zm370 0a1.848 1.848 0 1 1 0 3.696 1.848 1.848 0 0 1 0-3.696zm-351.522 0a1.848 1.848 0 1 1 0 3.696 1.848 1.848 0 0 1 0-3.696zm370 0a1.848 1.848 0 1 1 0 3.696 1.848 1.848 0 0 1 0-3.696z"
          opacity=".503"
        />
      </g>
    </g>
    <g opacity=".7">
      <g opacity=".515" fill="currentColor">
        <path
          d="M1.848 111.696a1.848 1.848 0 1 1 0-3.696 1.848 1.848 0 0 1 0 3.696zm370 0a1.848 1.848 0 1 1 0-3.696 1.848 1.848 0 0 1 0 3.696zM20.326 108a1.848 1.848 0 1 1 0 3.696 1.848 1.848 0 0 1 0-3.696zm370 0a1.848 1.848 0 1 1 0 3.696 1.848 1.848 0 0 1 0-3.696zm-351.522 0a1.848 1.848 0 1 1 0 3.696 1.848 1.848 0 0 1 0-3.696zm370 0a1.848 1.848 0 1 1 0 3.696 1.848 1.848 0 0 1 0-3.696zm-351.521 0a1.848 1.848 0 1 1 0 3.696 1.848 1.848 0 0 1 0-3.696zm370 0a1.848 1.848 0 1 1 0 3.696 1.848 1.848 0 0 1 0-3.696zM75.76 108a1.848 1.848 0 1 1 0 3.696 1.848 1.848 0 0 1 0-3.696zm370 0a1.848 1.848 0 1 1 0 3.696 1.848 1.848 0 0 1 0-3.696zm-351.52 0a1.848 1.848 0 1 1 0 3.696 1.848 1.848 0 0 1 0-3.696zm370 0a1.848 1.848 0 1 1 0 3.696 1.848 1.848 0 0 1 0-3.696zm-351.522 0a1.848 1.848 0 1 1 0 3.696 1.848 1.848 0 0 1 0-3.696zm370 0a1.848 1.848 0 1 1 0 3.696 1.848 1.848 0 0 1 0-3.696zm-351.521 0a1.848 1.848 0 1 1 0 3.696 1.848 1.848 0 0 1 0-3.696zm370 0a1.848 1.848 0 1 1 0 3.696 1.848 1.848 0 0 1 0-3.696zm-351.522 0a1.848 1.848 0 1 1 0 3.696 1.848 1.848 0 0 1 0-3.696zm370 0a1.848 1.848 0 1 1 0 3.696 1.848 1.848 0 0 1 0-3.696zm-351.522 0a1.848 1.848 0 1 1 0 3.696 1.848 1.848 0 0 1 0-3.696zm370 0a1.848 1.848 0 1 1 0 3.696 1.848 1.848 0 0 1 0-3.696zm-351.305 3.696a1.848 1.848 0 1 1 0-3.696 1.848 1.848 0 0 1 0 3.696zm370 0a1.848 1.848 0 1 1 0-3.696 1.848 1.848 0 0 1 0 3.696zM205.326 108a1.848 1.848 0 1 1 0 3.696 1.848 1.848 0 0 1 0-3.696zm370 0a1.848 1.848 0 1 1 0 3.696 1.848 1.848 0 0 1 0-3.696zm-351.522 0a1.848 1.848 0 1 1 0 3.696 1.848 1.848 0 0 1 0-3.696zm370 0a1.848 1.848 0 1 1 0 3.696 1.848 1.848 0 0 1 0-3.696zm-351.521 0a1.848 1.848 0 1 1 0 3.696 1.848 1.848 0 0 1 0-3.696zm370 0a1.848 1.848 0 1 1 0 3.696 1.848 1.848 0 0 1 0-3.696zm-351.523 0a1.848 1.848 0 1 1 0 3.696 1.848 1.848 0 0 1 0-3.696zm370 0a1.848 1.848 0 1 1 0 3.696 1.848 1.848 0 0 1 0-3.696zm-351.52 0a1.848 1.848 0 1 1 0 3.696 1.848 1.848 0 0 1 0-3.696zm370 0a1.848 1.848 0 1 1 0 3.696 1.848 1.848 0 0 1 0-3.696zm-351.522 0a1.848 1.848 0 1 1 0 3.696 1.848 1.848 0 0 1 0-3.696zm370 0a1.848 1.848 0 1 1 0 3.696 1.848 1.848 0 0 1 0-3.696zm-351.521 0a1.848 1.848 0 1 1 0 3.696 1.848 1.848 0 0 1 0-3.696zm370 0a1.848 1.848 0 1 1 0 3.696 1.848 1.848 0 0 1 0-3.696zm-351.522 0a1.848 1.848 0 1 1 0 3.696 1.848 1.848 0 0 1 0-3.696zm370 0a1.848 1.848 0 1 1 0 3.696 1.848 1.848 0 0 1 0-3.696zm-351.522 0a1.848 1.848 0 1 1 0 3.696 1.848 1.848 0 0 1 0-3.696zm370 0a1.848 1.848 0 1 1 0 3.696 1.848 1.848 0 0 1 0-3.696z"
          opacity=".503"
        />
      </g>
    </g>
    <g opacity=".6">
      <g opacity=".515" fill="currentColor">
        <path
          d="M1.848 93.696a1.848 1.848 0 1 1 0-3.696 1.848 1.848 0 0 1 0 3.696zm370 0a1.848 1.848 0 1 1 0-3.696 1.848 1.848 0 0 1 0 3.696zM20.326 90a1.848 1.848 0 1 1 0 3.696 1.848 1.848 0 0 1 0-3.696zm370 0a1.848 1.848 0 1 1 0 3.696 1.848 1.848 0 0 1 0-3.696zM38.804 90a1.848 1.848 0 1 1 0 3.696 1.848 1.848 0 0 1 0-3.696zm370 0a1.848 1.848 0 1 1 0 3.696 1.848 1.848 0 0 1 0-3.696zM57.283 90a1.848 1.848 0 1 1 0 3.696 1.848 1.848 0 0 1 0-3.696zm370 0a1.848 1.848 0 1 1 0 3.696 1.848 1.848 0 0 1 0-3.696zM75.76 90a1.848 1.848 0 1 1 0 3.696 1.848 1.848 0 0 1 0-3.696zm370 0a1.848 1.848 0 1 1 0 3.696 1.848 1.848 0 0 1 0-3.696zM94.24 90a1.848 1.848 0 1 1 0 3.696 1.848 1.848 0 0 1 0-3.696zm370 0a1.848 1.848 0 1 1 0 3.696 1.848 1.848 0 0 1 0-3.696zm-351.522 0a1.848 1.848 0 1 1 0 3.696 1.848 1.848 0 0 1 0-3.696zm370 0a1.848 1.848 0 1 1 0 3.696 1.848 1.848 0 0 1 0-3.696zm-351.521 0a1.848 1.848 0 1 1 0 3.696 1.848 1.848 0 0 1 0-3.696zm370 0a1.848 1.848 0 1 1 0 3.696 1.848 1.848 0 0 1 0-3.696zm-351.522 0a1.848 1.848 0 1 1 0 3.696 1.848 1.848 0 0 1 0-3.696zm370 0a1.848 1.848 0 1 1 0 3.696 1.848 1.848 0 0 1 0-3.696zm-351.522 0a1.848 1.848 0 1 1 0 3.696 1.848 1.848 0 0 1 0-3.696zm370 0a1.848 1.848 0 1 1 0 3.696 1.848 1.848 0 0 1 0-3.696zm-351.305 3.696a1.848 1.848 0 1 1 0-3.696 1.848 1.848 0 0 1 0 3.696zm370 0a1.848 1.848 0 1 1 0-3.696 1.848 1.848 0 0 1 0 3.696zM205.326 90a1.848 1.848 0 1 1 0 3.696 1.848 1.848 0 0 1 0-3.696zm370 0a1.848 1.848 0 1 1 0 3.696 1.848 1.848 0 0 1 0-3.696zm-351.522 0a1.848 1.848 0 1 1 0 3.696 1.848 1.848 0 0 1 0-3.696zm370 0a1.848 1.848 0 1 1 0 3.696 1.848 1.848 0 0 1 0-3.696zm-351.521 0a1.848 1.848 0 1 1 0 3.696 1.848 1.848 0 0 1 0-3.696zm370 0a1.848 1.848 0 1 1 0 3.696 1.848 1.848 0 0 1 0-3.696zM260.76 90a1.848 1.848 0 1 1 0 3.696 1.848 1.848 0 0 1 0-3.696zm370 0a1.848 1.848 0 1 1 0 3.696 1.848 1.848 0 0 1 0-3.696zm-351.52 0a1.848 1.848 0 1 1 0 3.696 1.848 1.848 0 0 1 0-3.696zm370 0a1.848 1.848 0 1 1 0 3.696 1.848 1.848 0 0 1 0-3.696zm-351.522 0a1.848 1.848 0 1 1 0 3.696 1.848 1.848 0 0 1 0-3.696zm370 0a1.848 1.848 0 1 1 0 3.696 1.848 1.848 0 0 1 0-3.696zm-351.521 0a1.848 1.848 0 1 1 0 3.696 1.848 1.848 0 0 1 0-3.696zm370 0a1.848 1.848 0 1 1 0 3.696 1.848 1.848 0 0 1 0-3.696zm-351.522 0a1.848 1.848 0 1 1 0 3.696 1.848 1.848 0 0 1 0-3.696zm370 0a1.848 1.848 0 1 1 0 3.696 1.848 1.848 0 0 1 0-3.696zm-351.522 0a1.848 1.848 0 1 1 0 3.696 1.848 1.848 0 0 1 0-3.696zm370 0a1.848 1.848 0 1 1 0 3.696 1.848 1.848 0 0 1 0-3.696z"
          opacity=".503"
        />
      </g>
    </g>
    <g opacity=".5">
      <g opacity=".515" fill="currentColor">
        <path
          d="M1.848 75.696a1.848 1.848 0 1 1 0-3.696 1.848 1.848 0 0 1 0 3.696zm370 0a1.848 1.848 0 1 1 0-3.696 1.848 1.848 0 0 1 0 3.696zM20.326 72a1.848 1.848 0 1 1 0 3.696 1.848 1.848 0 0 1 0-3.696zm370 0a1.848 1.848 0 1 1 0 3.696 1.848 1.848 0 0 1 0-3.696zM38.804 72a1.848 1.848 0 1 1 0 3.696 1.848 1.848 0 0 1 0-3.696zm370 0a1.848 1.848 0 1 1 0 3.696 1.848 1.848 0 0 1 0-3.696zM57.283 72a1.848 1.848 0 1 1 0 3.696 1.848 1.848 0 0 1 0-3.696zm370 0a1.848 1.848 0 1 1 0 3.696 1.848 1.848 0 0 1 0-3.696zM75.76 72a1.848 1.848 0 1 1 0 3.696 1.848 1.848 0 0 1 0-3.696zm370 0a1.848 1.848 0 1 1 0 3.696 1.848 1.848 0 0 1 0-3.696zM94.24 72a1.848 1.848 0 1 1 0 3.696 1.848 1.848 0 0 1 0-3.696zm370 0a1.848 1.848 0 1 1 0 3.696 1.848 1.848 0 0 1 0-3.696zm-351.522 0a1.848 1.848 0 1 1 0 3.696 1.848 1.848 0 0 1 0-3.696zm370 0a1.848 1.848 0 1 1 0 3.696 1.848 1.848 0 0 1 0-3.696zm-351.521 0a1.848 1.848 0 1 1 0 3.696 1.848 1.848 0 0 1 0-3.696zm370 0a1.848 1.848 0 1 1 0 3.696 1.848 1.848 0 0 1 0-3.696zm-351.522 0a1.848 1.848 0 1 1 0 3.696 1.848 1.848 0 0 1 0-3.696zm370 0a1.848 1.848 0 1 1 0 3.696 1.848 1.848 0 0 1 0-3.696zm-351.522 0a1.848 1.848 0 1 1 0 3.696 1.848 1.848 0 0 1 0-3.696zm370 0a1.848 1.848 0 1 1 0 3.696 1.848 1.848 0 0 1 0-3.696zm-351.305 3.696a1.848 1.848 0 1 1 0-3.696 1.848 1.848 0 0 1 0 3.696zm370 0a1.848 1.848 0 1 1 0-3.696 1.848 1.848 0 0 1 0 3.696zM205.326 72a1.848 1.848 0 1 1 0 3.696 1.848 1.848 0 0 1 0-3.696zm370 0a1.848 1.848 0 1 1 0 3.696 1.848 1.848 0 0 1 0-3.696zm-351.522 0a1.848 1.848 0 1 1 0 3.696 1.848 1.848 0 0 1 0-3.696zm370 0a1.848 1.848 0 1 1 0 3.696 1.848 1.848 0 0 1 0-3.696zm-351.521 0a1.848 1.848 0 1 1 0 3.696 1.848 1.848 0 0 1 0-3.696zm370 0a1.848 1.848 0 1 1 0 3.696 1.848 1.848 0 0 1 0-3.696zM260.76 72a1.848 1.848 0 1 1 0 3.696 1.848 1.848 0 0 1 0-3.696zm370 0a1.848 1.848 0 1 1 0 3.696 1.848 1.848 0 0 1 0-3.696zm-351.52 0a1.848 1.848 0 1 1 0 3.696 1.848 1.848 0 0 1 0-3.696zm370 0a1.848 1.848 0 1 1 0 3.696 1.848 1.848 0 0 1 0-3.696zm-351.522 0a1.848 1.848 0 1 1 0 3.696 1.848 1.848 0 0 1 0-3.696zm370 0a1.848 1.848 0 1 1 0 3.696 1.848 1.848 0 0 1 0-3.696zm-351.521 0a1.848 1.848 0 1 1 0 3.696 1.848 1.848 0 0 1 0-3.696zm370 0a1.848 1.848 0 1 1 0 3.696 1.848 1.848 0 0 1 0-3.696zm-351.522 0a1.848 1.848 0 1 1 0 3.696 1.848 1.848 0 0 1 0-3.696zm370 0a1.848 1.848 0 1 1 0 3.696 1.848 1.848 0 0 1 0-3.696zm-351.522 0a1.848 1.848 0 1 1 0 3.696 1.848 1.848 0 0 1 0-3.696zm370 0a1.848 1.848 0 1 1 0 3.696 1.848 1.848 0 0 1 0-3.696z"
          opacity=".503"
        />
      </g>
    </g>
    <g opacity=".4">
      <g opacity=".515" fill="currentColor">
        <path
          d="M1.848 57.696a1.848 1.848 0 1 1 0-3.696 1.848 1.848 0 0 1 0 3.696zm370 0a1.848 1.848 0 1 1 0-3.696 1.848 1.848 0 0 1 0 3.696zM20.326 54a1.848 1.848 0 1 1 0 3.696 1.848 1.848 0 0 1 0-3.696zm370 0a1.848 1.848 0 1 1 0 3.696 1.848 1.848 0 0 1 0-3.696zM38.804 54a1.848 1.848 0 1 1 0 3.696 1.848 1.848 0 0 1 0-3.696zm370 0a1.848 1.848 0 1 1 0 3.696 1.848 1.848 0 0 1 0-3.696zM57.283 54a1.848 1.848 0 1 1 0 3.696 1.848 1.848 0 0 1 0-3.696zm370 0a1.848 1.848 0 1 1 0 3.696 1.848 1.848 0 0 1 0-3.696zM75.76 54a1.848 1.848 0 1 1 0 3.696 1.848 1.848 0 0 1 0-3.696zm370 0a1.848 1.848 0 1 1 0 3.696 1.848 1.848 0 0 1 0-3.696zM94.24 54a1.848 1.848 0 1 1 0 3.696 1.848 1.848 0 0 1 0-3.696zm370 0a1.848 1.848 0 1 1 0 3.696 1.848 1.848 0 0 1 0-3.696zm-351.522 0a1.848 1.848 0 1 1 0 3.696 1.848 1.848 0 0 1 0-3.696zm370 0a1.848 1.848 0 1 1 0 3.696 1.848 1.848 0 0 1 0-3.696zm-351.521 0a1.848 1.848 0 1 1 0 3.696 1.848 1.848 0 0 1 0-3.696zm370 0a1.848 1.848 0 1 1 0 3.696 1.848 1.848 0 0 1 0-3.696zm-351.522 0a1.848 1.848 0 1 1 0 3.696 1.848 1.848 0 0 1 0-3.696zm370 0a1.848 1.848 0 1 1 0 3.696 1.848 1.848 0 0 1 0-3.696zm-351.522 0a1.848 1.848 0 1 1 0 3.696 1.848 1.848 0 0 1 0-3.696zm370 0a1.848 1.848 0 1 1 0 3.696 1.848 1.848 0 0 1 0-3.696zm-351.305 3.696a1.848 1.848 0 1 1 0-3.696 1.848 1.848 0 0 1 0 3.696zm370 0a1.848 1.848 0 1 1 0-3.696 1.848 1.848 0 0 1 0 3.696zM205.326 54a1.848 1.848 0 1 1 0 3.696 1.848 1.848 0 0 1 0-3.696zm370 0a1.848 1.848 0 1 1 0 3.696 1.848 1.848 0 0 1 0-3.696zm-351.522 0a1.848 1.848 0 1 1 0 3.696 1.848 1.848 0 0 1 0-3.696zm370 0a1.848 1.848 0 1 1 0 3.696 1.848 1.848 0 0 1 0-3.696zm-351.521 0a1.848 1.848 0 1 1 0 3.696 1.848 1.848 0 0 1 0-3.696zm370 0a1.848 1.848 0 1 1 0 3.696 1.848 1.848 0 0 1 0-3.696zM260.76 54a1.848 1.848 0 1 1 0 3.696 1.848 1.848 0 0 1 0-3.696zm370 0a1.848 1.848 0 1 1 0 3.696 1.848 1.848 0 0 1 0-3.696zm-351.52 0a1.848 1.848 0 1 1 0 3.696 1.848 1.848 0 0 1 0-3.696zm370 0a1.848 1.848 0 1 1 0 3.696 1.848 1.848 0 0 1 0-3.696zm-351.522 0a1.848 1.848 0 1 1 0 3.696 1.848 1.848 0 0 1 0-3.696zm370 0a1.848 1.848 0 1 1 0 3.696 1.848 1.848 0 0 1 0-3.696zm-351.521 0a1.848 1.848 0 1 1 0 3.696 1.848 1.848 0 0 1 0-3.696zm370 0a1.848 1.848 0 1 1 0 3.696 1.848 1.848 0 0 1 0-3.696zm-351.522 0a1.848 1.848 0 1 1 0 3.696 1.848 1.848 0 0 1 0-3.696zm370 0a1.848 1.848 0 1 1 0 3.696 1.848 1.848 0 0 1 0-3.696zm-351.522 0a1.848 1.848 0 1 1 0 3.696 1.848 1.848 0 0 1 0-3.696zm370 0a1.848 1.848 0 1 1 0 3.696 1.848 1.848 0 0 1 0-3.696z"
          opacity=".503"
        />
      </g>
    </g>
    <g opacity=".3">
      <g opacity=".515" fill="currentColor">
        <path
          d="M1.848 39.696a1.848 1.848 0 1 1 0-3.696 1.848 1.848 0 0 1 0 3.696zm370 0a1.848 1.848 0 1 1 0-3.696 1.848 1.848 0 0 1 0 3.696zM20.326 36a1.848 1.848 0 1 1 0 3.696 1.848 1.848 0 0 1 0-3.696zm370 0a1.848 1.848 0 1 1 0 3.696 1.848 1.848 0 0 1 0-3.696zM38.804 36a1.848 1.848 0 1 1 0 3.696 1.848 1.848 0 0 1 0-3.696zm370 0a1.848 1.848 0 1 1 0 3.696 1.848 1.848 0 0 1 0-3.696zM57.283 36a1.848 1.848 0 1 1 0 3.696 1.848 1.848 0 0 1 0-3.696zm370 0a1.848 1.848 0 1 1 0 3.696 1.848 1.848 0 0 1 0-3.696zM75.76 36a1.848 1.848 0 1 1 0 3.696 1.848 1.848 0 0 1 0-3.696zm370 0a1.848 1.848 0 1 1 0 3.696 1.848 1.848 0 0 1 0-3.696zM94.24 36a1.848 1.848 0 1 1 0 3.696 1.848 1.848 0 0 1 0-3.696zm370 0a1.848 1.848 0 1 1 0 3.696 1.848 1.848 0 0 1 0-3.696zm-351.522 0a1.848 1.848 0 1 1 0 3.696 1.848 1.848 0 0 1 0-3.696zm370 0a1.848 1.848 0 1 1 0 3.696 1.848 1.848 0 0 1 0-3.696zm-351.521 0a1.848 1.848 0 1 1 0 3.696 1.848 1.848 0 0 1 0-3.696zm370 0a1.848 1.848 0 1 1 0 3.696 1.848 1.848 0 0 1 0-3.696zm-351.522 0a1.848 1.848 0 1 1 0 3.696 1.848 1.848 0 0 1 0-3.696zm370 0a1.848 1.848 0 1 1 0 3.696 1.848 1.848 0 0 1 0-3.696zm-351.522 0a1.848 1.848 0 1 1 0 3.696 1.848 1.848 0 0 1 0-3.696zm370 0a1.848 1.848 0 1 1 0 3.696 1.848 1.848 0 0 1 0-3.696zm-351.305 3.696a1.848 1.848 0 1 1 0-3.696 1.848 1.848 0 0 1 0 3.696zm370 0a1.848 1.848 0 1 1 0-3.696 1.848 1.848 0 0 1 0 3.696zM205.326 36a1.848 1.848 0 1 1 0 3.696 1.848 1.848 0 0 1 0-3.696zm370 0a1.848 1.848 0 1 1 0 3.696 1.848 1.848 0 0 1 0-3.696zm-351.522 0a1.848 1.848 0 1 1 0 3.696 1.848 1.848 0 0 1 0-3.696zm370 0a1.848 1.848 0 1 1 0 3.696 1.848 1.848 0 0 1 0-3.696zm-351.521 0a1.848 1.848 0 1 1 0 3.696 1.848 1.848 0 0 1 0-3.696zm370 0a1.848 1.848 0 1 1 0 3.696 1.848 1.848 0 0 1 0-3.696zM260.76 36a1.848 1.848 0 1 1 0 3.696 1.848 1.848 0 0 1 0-3.696zm370 0a1.848 1.848 0 1 1 0 3.696 1.848 1.848 0 0 1 0-3.696zm-351.52 0a1.848 1.848 0 1 1 0 3.696 1.848 1.848 0 0 1 0-3.696zm370 0a1.848 1.848 0 1 1 0 3.696 1.848 1.848 0 0 1 0-3.696zm-351.522 0a1.848 1.848 0 1 1 0 3.696 1.848 1.848 0 0 1 0-3.696zm370 0a1.848 1.848 0 1 1 0 3.696 1.848 1.848 0 0 1 0-3.696zm-351.521 0a1.848 1.848 0 1 1 0 3.696 1.848 1.848 0 0 1 0-3.696zm370 0a1.848 1.848 0 1 1 0 3.696 1.848 1.848 0 0 1 0-3.696zm-351.522 0a1.848 1.848 0 1 1 0 3.696 1.848 1.848 0 0 1 0-3.696zm370 0a1.848 1.848 0 1 1 0 3.696 1.848 1.848 0 0 1 0-3.696zm-351.522 0a1.848 1.848 0 1 1 0 3.696 1.848 1.848 0 0 1 0-3.696zm370 0a1.848 1.848 0 1 1 0 3.696 1.848 1.848 0 0 1 0-3.696z"
          opacity=".503"
        />
      </g>
    </g>
    <g opacity=".2">
      <g opacity=".515" fill="currentColor">
        <path
          d="M1.848 21.696a1.848 1.848 0 1 1 0-3.696 1.848 1.848 0 0 1 0 3.696zm370 0a1.848 1.848 0 1 1 0-3.696 1.848 1.848 0 0 1 0 3.696zM20.326 18a1.848 1.848 0 1 1 0 3.696 1.848 1.848 0 0 1 0-3.696zm370 0a1.848 1.848 0 1 1 0 3.696 1.848 1.848 0 0 1 0-3.696zM38.804 18a1.848 1.848 0 1 1 0 3.696 1.848 1.848 0 0 1 0-3.696zm370 0a1.848 1.848 0 1 1 0 3.696 1.848 1.848 0 0 1 0-3.696zM57.283 18a1.848 1.848 0 1 1 0 3.696 1.848 1.848 0 0 1 0-3.696zm370 0a1.848 1.848 0 1 1 0 3.696 1.848 1.848 0 0 1 0-3.696zM75.76 18a1.848 1.848 0 1 1 0 3.696 1.848 1.848 0 0 1 0-3.696zm370 0a1.848 1.848 0 1 1 0 3.696 1.848 1.848 0 0 1 0-3.696zM94.24 18a1.848 1.848 0 1 1 0 3.696 1.848 1.848 0 0 1 0-3.696zm370 0a1.848 1.848 0 1 1 0 3.696 1.848 1.848 0 0 1 0-3.696zm-351.522 0a1.848 1.848 0 1 1 0 3.696 1.848 1.848 0 0 1 0-3.696zm370 0a1.848 1.848 0 1 1 0 3.696 1.848 1.848 0 0 1 0-3.696zm-351.521 0a1.848 1.848 0 1 1 0 3.696 1.848 1.848 0 0 1 0-3.696zm370 0a1.848 1.848 0 1 1 0 3.696 1.848 1.848 0 0 1 0-3.696zm-351.522 0a1.848 1.848 0 1 1 0 3.696 1.848 1.848 0 0 1 0-3.696zm370 0a1.848 1.848 0 1 1 0 3.696 1.848 1.848 0 0 1 0-3.696zm-351.522 0a1.848 1.848 0 1 1 0 3.696 1.848 1.848 0 0 1 0-3.696zm370 0a1.848 1.848 0 1 1 0 3.696 1.848 1.848 0 0 1 0-3.696zm-351.305 3.696a1.848 1.848 0 1 1 0-3.696 1.848 1.848 0 0 1 0 3.696zm370 0a1.848 1.848 0 1 1 0-3.696 1.848 1.848 0 0 1 0 3.696zM205.326 18a1.848 1.848 0 1 1 0 3.696 1.848 1.848 0 0 1 0-3.696zm370 0a1.848 1.848 0 1 1 0 3.696 1.848 1.848 0 0 1 0-3.696zm-351.522 0a1.848 1.848 0 1 1 0 3.696 1.848 1.848 0 0 1 0-3.696zm370 0a1.848 1.848 0 1 1 0 3.696 1.848 1.848 0 0 1 0-3.696zm-351.521 0a1.848 1.848 0 1 1 0 3.696 1.848 1.848 0 0 1 0-3.696zm370 0a1.848 1.848 0 1 1 0 3.696 1.848 1.848 0 0 1 0-3.696zM260.76 18a1.848 1.848 0 1 1 0 3.696 1.848 1.848 0 0 1 0-3.696zm370 0a1.848 1.848 0 1 1 0 3.696 1.848 1.848 0 0 1 0-3.696zm-351.52 0a1.848 1.848 0 1 1 0 3.696 1.848 1.848 0 0 1 0-3.696zm370 0a1.848 1.848 0 1 1 0 3.696 1.848 1.848 0 0 1 0-3.696zm-351.522 0a1.848 1.848 0 1 1 0 3.696 1.848 1.848 0 0 1 0-3.696zm370 0a1.848 1.848 0 1 1 0 3.696 1.848 1.848 0 0 1 0-3.696zm-351.521 0a1.848 1.848 0 1 1 0 3.696 1.848 1.848 0 0 1 0-3.696zm370 0a1.848 1.848 0 1 1 0 3.696 1.848 1.848 0 0 1 0-3.696zm-351.522 0a1.848 1.848 0 1 1 0 3.696 1.848 1.848 0 0 1 0-3.696zm370 0a1.848 1.848 0 1 1 0 3.696 1.848 1.848 0 0 1 0-3.696zm-351.522 0a1.848 1.848 0 1 1 0 3.696 1.848 1.848 0 0 1 0-3.696zm370 0a1.848 1.848 0 1 1 0 3.696 1.848 1.848 0 0 1 0-3.696z"
          opacity=".503"
        />
      </g>
    </g>
    <g opacity=".1">
      <g opacity=".515" fill="currentColor">
        <path
          d="M1.848 3.696a1.848 1.848 0 1 1 0-3.696 1.848 1.848 0 0 1 0 3.696zm370 0a1.848 1.848 0 1 1 0-3.696 1.848 1.848 0 0 1 0 3.696zM20.326 0a1.848 1.848 0 1 1 0 3.696 1.848 1.848 0 0 1 0-3.696zm370 0a1.848 1.848 0 1 1 0 3.696 1.848 1.848 0 0 1 0-3.696zM38.804 0a1.848 1.848 0 1 1 0 3.696 1.848 1.848 0 0 1 0-3.696zm370 0a1.848 1.848 0 1 1 0 3.696 1.848 1.848 0 0 1 0-3.696zM57.283 0a1.848 1.848 0 1 1 0 3.696 1.848 1.848 0 0 1 0-3.696zm370 0a1.848 1.848 0 1 1 0 3.696 1.848 1.848 0 0 1 0-3.696zM75.76 0a1.848 1.848 0 1 1 0 3.696 1.848 1.848 0 0 1 0-3.696zm370 0a1.848 1.848 0 1 1 0 3.696 1.848 1.848 0 0 1 0-3.696zM94.24 0a1.848 1.848 0 1 1 0 3.696 1.848 1.848 0 0 1 0-3.696zm370 0a1.848 1.848 0 1 1 0 3.696 1.848 1.848 0 0 1 0-3.696zM112.718 0a1.848 1.848 0 1 1 0 3.696 1.848 1.848 0 0 1 0-3.696zm370 0a1.848 1.848 0 1 1 0 3.696 1.848 1.848 0 0 1 0-3.696zM131.197 0a1.848 1.848 0 1 1 0 3.696 1.848 1.848 0 0 1 0-3.696zm370 0a1.848 1.848 0 1 1 0 3.696 1.848 1.848 0 0 1 0-3.696zM149.675 0a1.848 1.848 0 1 1 0 3.696 1.848 1.848 0 0 1 0-3.696zm370 0a1.848 1.848 0 1 1 0 3.696 1.848 1.848 0 0 1 0-3.696zM168.153 0a1.848 1.848 0 1 1 0 3.696 1.848 1.848 0 0 1 0-3.696zm370 0a1.848 1.848 0 1 1 0 3.696 1.848 1.848 0 0 1 0-3.696zM186.848 3.696a1.848 1.848 0 1 1 0-3.696 1.848 1.848 0 0 1 0 3.696zm370 0a1.848 1.848 0 1 1 0-3.696 1.848 1.848 0 0 1 0 3.696zM205.326 0a1.848 1.848 0 1 1 0 3.696 1.848 1.848 0 0 1 0-3.696zm370 0a1.848 1.848 0 1 1 0 3.696 1.848 1.848 0 0 1 0-3.696zM223.804 0a1.848 1.848 0 1 1 0 3.696 1.848 1.848 0 0 1 0-3.696zm370 0a1.848 1.848 0 1 1 0 3.696 1.848 1.848 0 0 1 0-3.696zM242.283 0a1.848 1.848 0 1 1 0 3.696 1.848 1.848 0 0 1 0-3.696zm370 0a1.848 1.848 0 1 1 0 3.696 1.848 1.848 0 0 1 0-3.696zM260.76 0a1.848 1.848 0 1 1 0 3.696 1.848 1.848 0 0 1 0-3.696zm370 0a1.848 1.848 0 1 1 0 3.696 1.848 1.848 0 0 1 0-3.696zM279.24 0a1.848 1.848 0 1 1 0 3.696 1.848 1.848 0 0 1 0-3.696zm370 0a1.848 1.848 0 1 1 0 3.696 1.848 1.848 0 0 1 0-3.696zM297.718 0a1.848 1.848 0 1 1 0 3.696 1.848 1.848 0 0 1 0-3.696zm370 0a1.848 1.848 0 1 1 0 3.696 1.848 1.848 0 0 1 0-3.696zM316.197 0a1.848 1.848 0 1 1 0 3.696 1.848 1.848 0 0 1 0-3.696zm370 0a1.848 1.848 0 1 1 0 3.696 1.848 1.848 0 0 1 0-3.696zM334.675 0a1.848 1.848 0 1 1 0 3.696 1.848 1.848 0 0 1 0-3.696zm370 0a1.848 1.848 0 1 1 0 3.696 1.848 1.848 0 0 1 0-3.696zM353.153 0a1.848 1.848 0 1 1 0 3.696 1.848 1.848 0 0 1 0-3.696zm370 0a1.848 1.848 0 1 1 0 3.696 1.848 1.848 0 0 1 0-3.696z"
          opacity=".503"
        />
      </g>
    </g>
  </g>
</svg>
